<svg xmlns="http://www.w3.org/2000/svg" width="222" height="396" viewBox="0 0 222 396" fill="none">
  <path d="M169.872 10.0602C153.753 15.4983 147.16 18.433 154.48 17.8685L166.697 17.0623L153.593 26.6215L140.488 36.1806L151.844 35.0781C162.339 33.6792 162.85 34.4333 159.084 43.159C156.958 48.7876 155.398 55.5744 155.721 57.9984C156.529 64.0584 119.021 134.024 114.985 134.562C112.966 134.831 105.324 132.972 97.5196 129.9C85.9209 126.101 84.4407 124.242 88.3962 120.015C91.6521 116.702 92.4856 107.545 90.9239 95.8293L88.4467 77.2454L79.0555 83.8425C61.78 96.0135 32.8549 140.987 24.2996 169.265C14.6683 201.798 14.2918 205.138 23.8979 193.989C27.7995 189.357 31.2708 187.661 31.594 190.085C31.9171 192.509 29.8183 195.256 27.5579 196.791C24.0866 198.487 25.217 200.803 31.4605 204.494C41.2563 210.178 43.9203 208.59 -2.74112 222.211C-10.2489 224.445 -18.1871 229.615 -20.5818 233.224C-23.9721 238.61 -29.1118 240.117 -43.1052 239.927C-64.5259 239.492 -69.9883 244.743 -77.2521 270.382C-84.2199 295.159 -83.059 343.935 -75.3629 340.031C-69.5774 337.204 -67.3981 331.979 -52.9239 286.465C-43.1309 255.144 -33.5515 246.877 -29.0561 265.192C-27.441 271.144 -21.4124 279.386 -15.0612 283.885C-1.44386 293.583 1.78678 311.655 -8.27684 322.454C-13.9813 328.97 -14.7343 335.65 -11.8801 357.062C-9.26854 373.572 -5.58088 385.827 -1.30179 390.19C5.83001 397.463 5.83001 397.463 5.15662 389.33C2.38299 365.44 4.42649 343.786 10.2654 335.196C13.7095 330.213 16.373 322.457 15.7806 318.013C14.3805 307.509 23.9323 289.789 25.9243 298.569C26.7588 301.747 27.2706 308.669 27.5132 313.571C28.1599 324.587 52.8388 352.547 68.2052 359.955C74.341 362.838 81.876 363.889 84.9436 362.247C91.4826 358.908 92.5315 351.367 86.8804 352.121C84.8621 352.39 74.6627 346.759 64.1939 339.109C46.0554 326.313 45.4363 324.751 45.2467 307.918C45.5669 273.336 46.1049 271.209 56.5998 269.81C64.6729 268.734 66.9604 270.485 68.0374 278.565C68.7913 284.221 71.402 288.395 73.4202 288.126C75.8421 287.804 77.7798 290.012 78.2107 293.244C78.6415 296.476 82.3553 299.682 86.5534 300.356C90.294 300.68 98.2864 302.081 104.153 302.944L114.621 304.427L105.363 296.615C98.3393 290.15 97.2089 287.834 101.272 284.414C104.232 281.963 105.2 276.9 102.886 271.863C100.356 265.211 101.001 263.891 106.518 265.212C110.366 266.343 117.552 267.853 122.153 268.473C129.285 269.578 129.581 268.716 124.44 264.056C119.704 259.342 119.946 258.076 126.539 255.142C135.903 251.426 144.03 256.922 153.612 273.325C159.506 283.641 160.152 288.489 156.924 307.423C152.486 332.685 152.406 335.163 156.846 334.571C161.69 333.925 172.397 290.969 170.727 278.445C169.919 272.385 167.066 263.308 163.89 257.975C156.758 244.535 162.517 244.589 182.324 257.574C198.121 268.215 198.229 269.023 199.172 291.512C199.82 308.695 202.161 317.017 207.356 322.082C213.518 328.25 213.545 325.368 209.183 292.644L204.336 256.284L182.941 234.466C163.941 215.206 161.734 210.977 162.083 198.184C163.131 178.308 169.614 156.063 174.458 155.417C176.476 155.148 178.495 161.046 178.2 168.076C177.932 184.559 184.822 193.097 193.621 188.224C199.406 185.397 199.675 181.249 195.449 164.954C190.227 144.269 191.922 141.576 206.158 146.668C210.517 148.554 215.765 147.855 218.725 145.404C223.192 141.931 221.55 138.86 210.516 130.052C198.567 120.543 197.437 118.226 200.908 110.362C205.67 99.8593 202.036 94.176 195.74 102.416C189.444 110.657 185.595 109.525 186.833 100.314C188.312 89.8378 180.589 90.4561 175.019 101.067C172.732 105.483 165.709 111.354 159.062 113.884C152.819 116.361 140.441 128.291 132.1 139.682C117.22 160.58 116.817 160.633 126.422 143.317C131.696 133.568 144.127 109.708 153.813 89.9134C163.499 70.1193 179.024 41.7345 187.688 26.5996C196.809 11.8149 202.621 -0.0615924 200.603 0.207436C199.042 0.826646 185.238 5.13384 169.872 10.0602ZM106.618 161.17C103.469 165.291 102.151 164.644 101.128 156.968C100.104 149.292 101.208 148.323 105.325 151.474C109.443 154.626 109.766 157.05 106.618 161.17ZM50.7805 183.005C52.4232 198.41 52.4232 198.41 47.6323 187.125C42.9491 176.647 42.7332 168.864 47.577 168.218C48.3843 168.11 50.1071 174.871 50.7805 183.005Z" fill="#4B4B4B" fill-opacity="0.1"/>
</svg>