<svg width="173" height="273" viewBox="0 0 173 273" fill="none" xmlns="http://www.w3.org/2000/svg">
<g id="Group 429">
<path id="Vector" d="M93.7952 10.3289C69.542 10.5973 55.8904 23.1736 52.7663 48.4179C51.2252 60.4816 55.6751 84.4685 60.648 91.3054C62.2949 93.332 67.1075 96.3844 71.6761 97.8859C77.3245 99.6094 79.7653 101.424 79.3955 103.224C78.9886 105.204 76.8979 105.337 70.5295 103.465C62.6843 101.478 62.1074 101.547 55.3346 108.034C45.5563 117.279 37.9625 122.284 30.8174 124.192C26.414 125.538 24.7843 127.079 24.5895 129.853C24.227 137.094 28.1595 136.214 45.1888 125.457C54.4814 119.488 62.9381 114.848 64.018 115.07C70.8573 116.476 71.8605 138.066 66.2044 158.288C60.6962 177.79 56.4059 198.668 52.7 224.918C49.8965 244.038 49.8866 245.912 53.3924 250.759C58.4713 257.993 65.9047 262.897 68.7253 261.038C70.244 260.037 68.4591 256.857 63.2643 251.099L55.4167 242.734L61.1124 215.017C66.4752 188.92 69.1405 182.339 72.1064 187.075C72.6784 187.943 70.5924 200.833 67.5227 215.771L61.938 242.949L67.1746 247.589C70.0075 250.234 73.7821 251.948 75.7299 251.598C78.6145 251.253 78.2595 250.242 74.0707 245.067L69.3099 239.024L76.1521 205.727C81.071 181.79 82.7551 169.943 82.0698 163.237C81.0443 152.709 85.581 139.76 92.9036 131.511C99.0305 124.516 103.742 126.235 106.392 136.158C108.937 145.685 115.628 161.504 119.065 165.774C121.178 168.272 122.077 168.457 125.152 166.275C128.586 164.167 128.374 163.373 121.824 155.086C117.243 149.08 114.536 143.084 113.56 136.881C111.819 125.268 106.533 116.304 100.594 115.083C93.3945 113.604 88.2219 110.477 88.7397 107.958C89.0725 106.338 94.5139 106.331 106.181 107.978C128.868 110.764 135.934 110.153 145.767 104.295C156.393 98.2248 160.36 90.7864 163.159 72.6034L165.324 58.4169L157.168 46.9867C144.362 28.9736 111.85 10.0998 93.7952 10.3289ZM131.904 33.9168C145.082 42.8149 155.112 54.255 156.729 61.903C157.397 65.0416 157.145 71.7428 155.93 76.7453C152.643 91.8267 142.251 101.321 127.431 103.153C118.814 104.008 94.2255 99.5184 94.7433 96.9986C94.9652 95.9188 99.6127 96.1235 105.192 97.27C130.569 102.485 151.413 85.9465 146.154 64.9823C141.85 47.5906 127.496 36.1998 104.458 31.4657C94.5592 29.4316 91.1347 29.6657 84.0216 32.3309C73.8021 36.421 69.411 42.2716 66.4892 56.4901C63.9002 69.0888 66.6714 76.5987 77.2877 86.096C82.9533 91.387 83.2393 91.8209 79.3488 91.5842C73.4045 91.3006 63.37 80.7974 60.8898 72.7845C59.5807 68.2011 60.0172 60.6 62.0292 48.0703C64.8598 30.6442 65.2247 29.7813 70.3579 26.7094C85.6145 17.2765 111.796 20.4056 131.904 33.9168ZM123.307 44.718C145.745 60.5838 147.214 82.6452 126.669 90.4285C115.873 94.5876 111.119 93.986 93.3578 86.397C78.4022 79.7597 75.9613 77.945 72.2163 70.6101C68.9003 63.9261 71.2822 49.5966 76.8321 42.6711C85.6464 31.7268 106.65 32.6665 123.307 44.718Z" fill="#4B4B4B" fill-opacity="0.1"/>
<path id="Vector_2" d="M95.8067 38.8794C92.1602 40.1935 92.1625 46.5717 95.6142 48.0313C99.2459 49.5279 102.007 45.2183 100.047 41.0639C98.9773 38.9682 97.4684 38.0954 95.8067 38.8794Z" fill="#4B4B4B" fill-opacity="0.1"/>
<path id="Vector_3" d="M107.217 48.1645C106.381 49.4934 106.297 51.7271 107.298 53.2459C109.3 56.2834 116.312 52.2845 115.141 48.8549C113.933 45.6054 109.143 45.1837 107.217 48.1645Z" fill="#4B4B4B" fill-opacity="0.1"/>
<path id="Vector_4" d="M81.1466 44.4955C78.6861 46.4284 78.4641 47.5083 80.4661 50.5459C83.363 54.7052 87.6604 52.9621 87.6531 47.5208C87.8208 43.0533 84.7291 41.6676 81.1466 44.4955Z" fill="#4B4B4B" fill-opacity="0.1"/>
<path id="Vector_5" d="M121.928 53.251C119.579 54.644 118.972 60.3343 120.836 62.218C123.383 64.4296 129.352 60.0287 128.795 56.3502C128.127 53.2116 124.532 51.535 121.928 53.251Z" fill="#4B4B4B" fill-opacity="0.1"/>
<path id="Vector_6" d="M131.509 67.7878C128.366 69.3928 128.038 70.0757 129.5 73.0023C130.856 75.5319 132.042 76.1508 134.174 74.9008C140.498 71.5108 138.119 64.8317 131.509 67.7878Z" fill="#4B4B4B" fill-opacity="0.1"/>
<path id="Vector_7" d="M73.9104 56.8896C72.2067 58.7904 75.1825 61.6529 77.8181 60.6939C80.0568 59.8408 79.4627 56.3423 76.9429 55.8245C76.043 55.6396 74.8152 56.1376 73.9104 56.8896Z" fill="#4B4B4B" fill-opacity="0.1"/>
<path id="Vector_8" d="M85.7102 60.6273C80.3649 62.9054 79.1543 66.971 81.9674 73.3641C84.2454 78.7093 92.5566 81.1675 97.5838 77.6986C101.669 75.1617 103.767 66.7765 101.336 63.0881C98.9055 59.3997 91.2724 58.2063 85.7102 60.6273ZM99.7289 67.2597C100.53 72.489 95.498 76.8948 90.4265 75.1023C84.4551 73.1249 82.394 67.6367 86.2303 64.4858C90.0667 61.335 99.0657 63.1842 99.7289 67.2597Z" fill="#4B4B4B" fill-opacity="0.1"/>
<path id="Vector_9" d="M89.8621 65.9825C87.4434 66.7985 87.2585 67.6984 88.6884 69.8681C89.9754 71.8208 91.0553 72.0427 93.008 70.7557C96.4794 68.4678 93.9055 64.5624 89.8621 65.9825Z" fill="#4B4B4B" fill-opacity="0.1"/>
<path id="Vector_10" d="M105.634 75.0384C103.676 77.2622 106.393 81.3846 109.209 80.4625C111.447 79.6095 111.26 74.1311 108.92 73.6503C108.02 73.4654 106.575 74.1064 105.634 75.0384Z" fill="#4B4B4B" fill-opacity="0.1"/>
<path id="Vector_11" d="M119.879 79.6541C117.922 81.8779 119.31 85.1645 122.549 85.8302C123.989 86.1261 125.402 84.7281 125.809 82.7483C126.585 78.9687 122.525 76.8212 119.879 79.6541Z" fill="#4B4B4B" fill-opacity="0.1"/>
</g>
</svg>
