<svg xmlns="http://www.w3.org/2000/svg" width="217" height="306" viewBox="0 0 217 306" fill="none">
  <path d="M32.4651 2.53868C32.4212 3.29899 33.7039 7.72672 35.2767 12.3685L38.0221 20.8398L33.5745 23.8311C23.4987 30.6663 18.435 39.304 17.3131 51.1948C16.7471 57.5673 16.9573 59.6182 19.3985 66.0726C21.1334 70.8685 23.1264 74.6139 24.9772 76.4966C26.5379 78.1652 27.5863 79.5937 27.3042 79.6958C27.0221 79.7978 21.2077 77.5411 14.3689 74.8043C7.59003 71.9395 1.62155 69.8449 1.05734 70.049C-1.3876 70.9334 0.597328 74.3627 7.93256 81.7054C12.3765 86.0529 21.8187 95.3983 28.9578 102.493C42.7759 115.998 42.972 116.246 58.9394 142.159C67.7496 156.519 70.2788 161.453 78.0226 179.92C86.1326 199.105 87.8415 204.123 96.056 232.416C101.017 249.657 105.365 265.205 105.661 266.905L106.314 270.179L93.1486 274.941C83.4628 278.445 79.7874 279.456 79.1651 278.617C78.7729 278.121 70.703 260.516 61.4424 239.62C39.4476 190.578 39.8478 191.39 36.8085 190.044C35.3059 189.417 31.4184 189.548 27.4188 190.25L20.5221 191.469L17.3925 182.817C14.2629 174.166 12.4641 171.839 10.2993 173.792C9.40095 174.542 9.96928 176.995 12.4866 183.954L15.8203 193.17L9.92806 196.577C2.88141 200.615 1.40087 202.108 1.44702 205.175C1.5131 206.534 7.24427 227.962 14.1741 252.998L26.777 298.419L22.2452 300.59C18.4318 302.395 17.8156 303.043 18.3939 304.642C19.0742 306.523 19.7325 306.285 129.567 266.552C239.401 226.82 240.059 226.582 239.379 224.701C238.801 223.102 237.946 223.092 234.177 224.137L229.655 225.454L227.756 221.674C226.692 219.614 218.18 200.786 208.825 179.924C199.47 159.062 191.094 140.611 190.2 139.021C188.113 135.309 184.773 134.603 176.586 136.076L170.006 137.287L166.672 128.071C163.304 118.762 161.804 116.965 160.013 119.952C159.285 121.173 159.827 123.848 162.174 130.336L165.304 138.988L159.01 142.754C154.212 145.659 152.603 147.092 151.967 149.449C151.271 151.934 153.138 159.447 163.728 197.833C170.751 222.835 176.527 243.503 176.663 243.879C176.833 244.349 170.822 246.843 163.394 249.53L149.852 254.429L146.839 247.862C145.102 244.237 138.489 229.189 131.952 214.645C120.844 189.526 119.858 186.799 113.546 164.942C107.421 144.188 106.48 139.53 103.576 118.568L100.36 95.273L102.49 73.2341C103.638 61.1212 105.002 47.5477 105.488 43.0119C106.122 36.8274 105.972 34.6485 104.845 33.8863C104.043 33.4321 102.993 33.174 102.616 33.3101C102.24 33.4462 99.0873 38.8405 95.7102 45.3792C92.2991 51.8239 89.3941 57.0222 89.1721 56.9961C89.01 56.8421 88.7918 54.4751 88.6256 51.664C88.149 40.3515 79.8571 27.7188 69.4688 22.225C63.9204 19.2341 53.3121 17.5418 47.5178 18.5745L43.3302 19.345L40.2346 10.7877C38.2616 5.33357 36.5928 1.89627 35.5683 1.4161C33.6475 0.51582 32.5191 0.924031 32.4651 2.53868ZM56.3436 23.5701C60.4352 24.0041 64.9951 25.4385 67.8203 27.0751C76.4319 32.3608 76.2538 31.5745 73.4254 47.2729C72.0371 54.9 70.8129 61.5107 70.6929 61.7668C70.3748 62.9453 68.4899 60.9686 58.9917 49.4104C50.9941 39.6488 48.657 37.3039 47.0844 37.6601C45.6058 37.9823 45.0917 38.9127 45.0197 41.0656C45.2888 64.1508 45.237 69.593 44.8509 70.5834C44.3107 71.7359 23.1596 54.7159 22.3431 52.4591C21.2886 49.5439 25.3138 38.6234 29.3372 33.8713C32.2222 30.3818 36.7039 27.4845 42.8762 25.1453C48.5184 23.1043 50.6633 22.8601 56.3436 23.5701ZM59.064 57.2535C63.3439 62.6175 67.0356 67.2372 67.1717 67.6133C67.3418 68.0835 63.5883 69.7603 58.8865 71.4612C52.398 73.8084 50.3212 74.2406 50.2632 73.1982C50.3412 72.5319 50.1888 66.5255 50.1486 59.9469C50.0483 53.4963 50.2881 47.9861 50.5702 47.8841C50.9464 47.748 54.7241 52.0176 59.064 57.2535ZM33.3882 68.8812C38.6265 73.3668 42.9944 77.2101 43.0965 77.4922C43.1645 77.6803 42.2402 78.6527 41.0257 79.4111C38.1346 81.414 35.3855 80.2817 30.5413 75.1218C26.5416 70.8262 21.4992 61.5908 22.9097 61.0805C23.3799 60.9104 28.0559 64.4296 33.3882 68.8812ZM83.4155 50.7839C83.7017 53.3389 83.4978 57.7727 82.9977 60.5058C82.1616 64.9556 81.8275 65.5018 78.9903 65.8901C77.2897 66.1863 75.709 66.2264 75.4529 66.1063C75.0688 65.9263 77.7532 49.5356 79.3536 42.7889L80.0077 39.8937L81.4464 42.9889C82.2808 44.7075 83.1293 48.2289 83.4155 50.7839ZM29.1472 86.2603C30.0356 86.3643 28.5711 88.4892 26.6464 89.9299C25.0638 91.1404 24.1674 90.7203 19.8595 86.7489C17.2324 84.19 14.7933 81.563 14.5552 80.9048C14.3171 80.2465 17.4083 81.1487 21.344 82.9153C25.3737 84.6478 28.8911 86.1403 29.1472 86.2603ZM99.134 56.9017C98.5841 63.9065 98.284 64.5468 95.9511 64.859C91.3793 65.4494 91.3212 64.407 95.2725 56.8098C97.4152 52.7381 99.3858 49.3667 99.4799 49.3327C99.6679 49.2646 99.5 52.622 99.134 56.9017ZM76.5376 71.4564C78.3743 71.5364 77.9802 72.2107 74.0008 76.2024C67.5825 82.5653 59.4013 85.5248 50.2356 84.5868C43.863 84.0208 43.863 84.0208 46.446 82.342C50.0553 79.9729 73.9406 71.3325 76.5376 71.4564ZM40.0259 94.8733C44.7141 101.366 45.1983 102.998 44.056 106.602L43.1198 109.599L36.3648 102.685C32.5691 98.9532 29.4137 95.522 29.2436 95.0518C28.9375 94.2055 33.7712 90.2237 35.3779 89.9615C36.0101 89.9455 38.057 92.0763 40.0259 94.8733ZM93.8665 69.9731L97.762 70.1591L96.8741 80.0511C96.3781 85.4412 95.7981 90.0111 95.5159 90.1131C94.3875 90.5213 89.5854 85.7716 89.4773 84.0029C89.4532 83.0546 89.143 79.5512 88.9007 76.2359C88.6925 73.0146 88.8425 70.1954 89.2186 70.0594C89.6888 69.8893 91.8076 69.8672 93.8665 69.9731ZM47.7228 90.2812C47.8589 90.6573 47.6689 91.8958 47.3848 93.1683C46.7406 95.2092 46.5186 95.1832 44.5237 92.6082C41.3262 88.7668 41.3442 88.2286 44.5895 88.9688C46.2122 89.3388 47.5868 89.905 47.7228 90.2812ZM84.0969 77.6546C84.7733 81.8763 84.1831 82.3025 81.3759 80.1277C79.6011 78.7492 79.5591 78.3391 80.9896 76.1201C83.0623 73.0308 83.3184 73.1508 84.0969 77.6546ZM72.7299 115.902C78.4028 131.29 83.2612 143.251 84.0295 143.611C84.7979 143.971 85.5761 143.477 86.2444 142.384C87.0927 140.908 85.852 136.89 77.4157 113.569L67.5846 86.3928L69.9355 85.5424C71.5341 84.9641 72.4565 85.1621 72.7707 86.3245C73.1109 87.2649 76.9349 99.5997 81.3452 113.849C88.0668 135.664 89.5636 139.801 91.0402 140.65C92.3208 141.25 93.013 141.106 93.4332 140.209C93.7933 139.441 93.2466 129.111 92.2497 117.242C91.2529 105.373 90.5522 95.2054 90.8523 94.5651C91.0923 94.0529 92.2368 94.2769 93.5254 95.1932C95.3001 96.5717 95.8704 97.8542 96.2667 101.007C99.7273 131.445 102.167 144.068 108.946 166.925C118.155 198.261 127.501 234.972 125.87 234.286C125.708 234.132 121.382 225.7 116.409 215.482C111.531 205.231 107.001 196.235 106.379 195.397C105.168 193.814 102.869 194.22 102.413 196.193C102.249 197.21 110.526 234.2 111.895 238.278C112.167 239.03 112.115 239.474 111.731 239.294C110.356 238.728 90.7404 197.438 82.7244 178.219C74.9466 159.658 73.0216 156.1 60.974 136.319C50.1189 118.658 47.7938 114.289 47.9598 112.102C48.0478 110.581 48.5199 109.241 48.9901 109.071C49.4603 108.901 55.5211 117.13 62.5783 127.231C69.5755 137.461 75.8664 146.032 76.6347 146.392C77.403 146.753 78.1813 146.258 78.6875 145.012C79.5617 143.313 78.5412 140.492 71.1635 122.743C56.034 86.2112 57.2066 90.0407 60.1298 89.3023L62.5827 88.7339L72.7299 115.902ZM57.017 101.275C58.7519 106.071 61.4492 112.646 62.922 115.835C66.4717 123.59 64.4328 121.775 56.6772 110.331L50.5324 101.281L51.4706 97.1137C52.0127 94.7908 52.6909 92.844 53.1611 92.6739C53.5373 92.5378 55.2481 96.3853 57.017 101.275ZM83.7972 88.2909C84.8457 89.7194 87.1374 108.989 86.5593 112.388C86.2832 113.977 82.1691 101.428 79.0273 89.8037L77.3804 83.4872L80.0175 85.1918C81.4001 86.0741 83.0809 87.4866 83.7972 88.2909ZM18.9159 201.727L20.2085 205.3L14.2823 208.614C11.0071 210.437 8.09995 211.807 7.84385 211.687C7.4937 211.601 7.06946 209.841 6.70524 207.952C6.21491 204.833 6.51501 204.192 9.44812 202.6C11.1928 201.543 13.1255 200.419 13.5276 200.06C16.4107 197.741 17.6232 198.154 18.9159 201.727ZM33.4434 194.557C34.998 194.739 39.0138 199.667 38.4396 200.726C38.3196 200.982 35.2684 201.66 31.585 202.355L24.9103 203.599L23.5837 199.932L22.257 196.265L27.0088 195.29C29.5558 194.688 32.427 194.393 33.4434 194.557ZM168.433 147.639L169.794 151.401L165.579 153.564C163.176 154.858 160.619 156.315 159.874 156.903C158.566 157.696 158.114 157.327 157.127 154.6C155.801 150.933 156.281 149.909 160.83 147.199C166.783 143.664 167.005 143.69 168.433 147.639ZM179.706 140.584C184.782 139.917 186.062 140.518 187.491 144.467C188.341 146.818 188.127 147.108 185.888 147.386C184.436 147.486 181.351 148.071 178.864 148.545C174.428 149.512 174.428 149.512 173.135 145.938C171.639 141.801 172.075 141.537 179.706 140.584ZM23.3381 213.952L24.6308 217.525L19.979 219.952C17.3881 221.315 14.3009 223.07 13.1805 223.794C11.2217 225.141 11.0597 224.987 10.3993 221.397C9.58675 216.799 9.37268 217.089 14.0164 214.346C21.4312 209.856 21.8414 209.814 23.3381 213.952ZM38.1998 206.236C39.8064 205.974 40.8729 206.864 42.2275 209.139C43.19 210.918 43.8623 212.482 43.8023 212.61C43.7763 212.832 40.443 213.613 36.4774 214.409L29.2986 215.73L27.9719 212.063L26.6452 208.395L31.3971 207.421C33.9441 206.818 37.0633 206.328 38.1998 206.236ZM172.856 159.864L174.182 163.531L169.06 166.129C166.281 167.559 163.536 169.084 162.886 169.638C162.176 170.32 161.46 169.516 160.473 166.789L159.112 163.028L163.756 160.284C171.487 155.786 171.359 155.726 172.856 159.864ZM188.982 152.116C190.819 152.196 191.595 152.872 192.581 155.599C193.704 158.703 193.618 159.053 191.533 159.169C190.209 159.329 186.807 159.921 184.072 160.592L178.85 161.736L177.524 158.069L176.163 154.308L181.385 153.163C184.154 152.586 187.589 152.088 188.982 152.116ZM27.7604 226.176L29.0531 229.75L22.7087 232.789C19.2713 234.458 16.0481 235.837 15.6039 235.785C14.7496 235.775 12.9467 230.791 13.4268 229.766C13.7869 228.998 20.7655 224.772 23.9288 223.521C26.2457 222.577 26.5358 222.791 27.7604 226.176ZM43.5284 218.026C45.075 217.892 46.2015 218.655 47.326 220.587C48.1264 222.212 48.7647 223.682 48.7727 223.999C48.6867 224.349 45.3274 225.351 41.2078 226.31L33.7209 227.955L32.3942 224.287L31.0335 220.526L36.2555 219.381C39.0246 218.805 42.3919 218.119 43.5284 218.026ZM177.244 171.995L178.571 175.662L171.824 179.06L165.112 182.551L163.819 178.978C162.628 175.687 162.748 175.431 165.93 173.642C167.674 172.585 169.607 171.461 170.009 171.102C170.505 170.71 171.942 169.978 173.446 169.434C175.763 168.489 176.053 168.703 177.244 171.995ZM194.25 164.035C196.147 163.987 196.958 164.757 197.842 167.202L198.965 170.305L191.35 171.89L183.641 173.509L182.066 170.038L180.491 166.566L186.089 165.285C189.234 164.573 192.858 164.007 194.25 164.035ZM31.9266 238.281L32.9031 241.862L25.8484 245.584C18.0755 249.672 17.1871 249.568 16.9908 244.322C16.9447 241.255 19.1775 239.49 27.4107 236.086C30.95 234.7 30.95 234.7 31.9266 238.281ZM50.4636 229.555C52.0343 230.369 54.3054 236.353 53.0149 236.607C52.3827 236.624 48.7673 237.506 44.9978 238.551L38.1772 240.274L36.8165 236.512L35.4558 232.751L42.5585 230.926C46.362 229.975 49.9854 229.409 50.4636 229.555ZM181.734 184.407C183.061 188.075 183.095 188.169 179.616 189.427C177.675 190.236 174.426 191.837 172.399 192.995L168.627 195.21L167.335 191.637C166.246 188.628 166.384 187.833 168.035 186.811C169.061 186.121 170.712 185.098 171.678 184.536C172.611 183.879 174.988 182.807 176.928 181.999C180.374 180.646 180.374 180.646 181.734 184.407ZM200.323 175.237C201.178 175.247 202.32 176.641 203.069 178.71L204.327 182.19L197.25 183.792C187.405 185.972 187.627 185.998 186.232 182.142L184.973 178.663L191.888 176.906C195.692 175.955 199.469 175.227 200.323 175.237ZM185.952 196.068L187.415 200.111L181.319 202.955C177.848 204.53 174.478 206.386 173.734 206.975C172.528 208.049 172.075 207.681 170.885 204.39C170.102 202.227 169.584 200.5 169.738 200.338C169.832 200.304 173.107 198.481 176.973 196.232C180.872 194.077 184.148 192.254 184.302 192.092C184.396 192.058 185.136 193.811 185.952 196.068ZM36.3488 250.506L37.3594 254.181L31.4852 257.051C28.2359 258.651 24.6786 260.576 23.5582 261.301C21.6935 262.613 21.5314 262.459 20.965 258.836C20.6268 256.725 20.4507 254.768 20.5707 254.512C20.9908 253.616 27.2592 250.072 31.3628 248.481L35.3723 246.924L36.3488 250.506ZM54.9119 241.557C56.3045 241.585 59.714 246.307 59.438 247.896C59.386 248.34 46.9331 251.25 42.6774 251.832C42.4553 251.806 41.817 250.335 41.1367 248.455L39.878 244.975L46.6046 243.286C50.2801 242.276 54.0576 241.547 54.9119 241.557ZM205.464 187.095C206.634 187.097 207.581 188.244 208.499 190.783C209.724 194.168 209.638 194.518 207.587 194.728C206.263 194.889 202.391 195.651 198.87 196.499L192.519 198.052L190.91 194.487L189.302 190.922L196.464 188.969C200.456 187.95 204.387 187.059 205.464 187.095ZM123.441 240.8C127.979 250.112 131.921 258.363 132.194 259.115C132.636 260.338 131.703 260.994 127.942 262.355L123.052 264.124L122.324 260.346C121.925 258.363 119.77 249.466 117.521 240.602C113.447 224.636 112.694 219.91 114.313 222.621C114.773 223.306 118.903 231.489 123.441 240.8ZM108.193 244.508C112.033 252.477 116.001 260.506 117.058 262.251L118.914 265.62L114.871 267.083L110.921 268.512L110.193 264.734C109.795 262.752 108.156 256.751 106.567 251.477C103.041 239.673 100.35 229.587 100.862 229.827C101.118 229.947 104.353 236.539 108.193 244.508ZM144.086 254.069C144.86 255.915 144.492 256.368 141.201 257.558C137.722 258.817 137.372 258.731 137.033 256.62C136.907 255.39 134.99 247.15 132.741 238.287C130.398 229.457 128.583 221.5 128.687 220.612C128.654 219.347 139.764 243.297 144.086 254.069ZM40.687 261.91C42.2178 266.142 42.2178 266.142 30.9655 271.488L24.8092 274.46L24.3109 271.024C24.0407 269.102 23.9326 267.333 24.1126 266.949C24.2927 266.565 30.9632 262.663 38.7361 258.575C39.0783 258.345 39.9727 259.935 40.687 261.91ZM53.5999 254.687C60.8307 252.922 61.403 253.034 63.618 256.805L65.3988 259.67L58.8003 261.419C46.9196 264.441 46.9196 264.441 45.3889 260.209C44.2323 257.012 44.3103 256.346 45.8909 256.306C46.8053 256.188 50.2666 255.467 53.5999 254.687ZM190.239 207.916C191.769 212.148 191.769 212.148 181.578 216.898L175.421 219.87L174.231 216.578C173.04 213.287 173.1 213.159 177.65 210.45C180.079 208.933 183.448 207.076 184.884 206.344C186.415 205.578 187.818 204.751 188.254 204.487C188.63 204.351 189.49 205.848 190.239 207.916ZM207.271 199.734C212.407 198.94 212.535 199 213.726 202.291L214.916 205.582L208.412 207.297C196.813 210.217 196.403 210.259 195.145 206.78C194.532 205.087 194.236 203.386 194.382 202.908C194.742 202.14 198.734 201.121 207.271 199.734ZM45.1433 274.229L46.504 277.99L37.0064 281.426C28.7312 284.42 27.5347 284.64 27.5286 283.153C27.5046 282.205 27.3785 280.974 27.1064 280.222C26.8342 279.47 29.007 277.833 33.6928 275.5C44.5269 269.879 43.6125 269.997 45.1433 274.229ZM62.766 265.621C66.1674 265.028 66.8676 265.2 67.9662 267.355L69.1668 269.792L60.2333 273.024L51.2058 276.289L49.8451 272.528L48.4504 268.672L53.6725 267.528C56.4416 266.951 60.5612 265.993 62.766 265.621ZM194.661 220.141L196.022 223.903L187.088 227.134C178.155 230.366 178.155 230.366 177.304 228.015C176.828 226.698 176.916 225.178 177.506 224.752C178.311 224.035 187.144 219.351 192.206 216.882C192.924 216.516 193.776 217.696 194.661 220.141ZM213.224 211.193C216.625 210.6 217.326 210.772 218.424 212.927L219.625 215.364L210.221 218.766L200.723 222.202L199.601 219.098C198.955 217.312 198.658 215.611 198.804 215.133C199.164 214.365 205.353 212.658 213.224 211.193ZM49.5656 286.454L50.9263 290.215L40.9585 293.821C32.2131 296.984 31.0166 297.205 31.0106 295.718C30.9865 294.77 30.6563 292.975 30.2141 291.752C29.3977 289.496 29.4917 289.462 38.8013 286.094L48.2049 282.692L49.5656 286.454ZM73.0747 277.949L74.4354 281.711L65.0317 285.112L55.6281 288.514L54.2674 284.753L52.9067 280.991L62.3103 277.589L71.714 274.188L73.0747 277.949ZM199.083 232.366L200.444 236.127L191.04 239.529L181.637 242.931L180.514 239.828C179.868 238.041 179.538 236.246 179.812 235.828C179.958 235.35 184.087 233.537 188.977 231.768L197.722 228.604L199.083 232.366ZM222.356 222.033C225.74 226.977 225.74 226.977 215.02 230.855L205.146 234.426L203.785 230.665L202.424 226.903L211.734 223.536C220.573 220.338 221.078 220.262 222.356 222.033Z" fill="#4B4B4B" fill-opacity="0.1"/>
</svg>