<svg width="315" height="196" viewBox="0 0 315 196" fill="none" xmlns="http://www.w3.org/2000/svg">
<path d="M116.792 39.388C53.8388 25.5271 13.2049 24.2305 5.36404 35.8029C3.70313 38.1548 3.6906 38.9793 4.94125 41.2784C10.7691 52.0398 33.9515 65.2479 71.7953 79.3579C88.7265 85.7278 168.379 106.828 186.79 109.97C223.156 116.029 248.278 116.508 260.824 111.362C272.662 106.545 262.961 93.6146 237.215 79.9309C212.744 66.8972 158.131 48.5301 116.792 39.388ZM70.4908 56.6584C70.9823 61.032 70.1515 61.4318 64.1921 59.3279C57.9429 57.1469 58.0138 57.2693 57.9672 53.9455C57.831 51.7361 58.05 51.6909 64.0414 53.2858C68.8731 54.572 70.3163 55.3702 70.4908 56.6584ZM211.352 94.6739C210.032 96.9097 206.387 97.3879 201.265 96.0245C197.98 95.1499 197.574 94.7313 198.088 92.7986C198.963 89.5131 199.62 89.3775 206.384 91.1782C211.989 92.6703 212.35 92.8698 211.352 94.6739ZM88.2591 62.2163C88.0533 62.9894 87.983 64.4194 88.0671 65.2697C88.2868 66.7769 87.4623 66.7644 81.3354 64.5125C74.6544 62.0096 73.1208 60.7734 73.8153 58.1643C74.0211 57.3912 76.25 57.5706 81.3716 58.934C86.9764 60.4261 88.542 61.1533 88.2591 62.2163ZM194.59 91.5569C193.663 93.4834 192.813 93.5675 186.57 92.5266C182.725 91.8133 179.387 91.1319 179.271 90.7905C179.13 90.5458 179.561 89.3153 180.333 87.9687C181.556 85.7072 181.872 85.6877 188.636 87.4884C195.497 89.3149 195.568 89.4372 194.59 91.5569ZM111.877 70.6768C111.209 73.1893 111.209 73.1893 103.845 70.9186C96.9644 68.7765 96.4361 68.4289 96.6864 66.3224C96.9367 64.2159 97.1557 64.1707 104.693 66.1772C112.424 68.2352 112.521 68.2609 111.877 70.6768ZM132.171 76.0789C131.528 78.4948 131.431 78.4691 123.797 76.4368C116.163 74.4046 116.066 74.3789 116.709 71.963C117.352 69.5471 117.449 69.5729 125.083 71.6051C132.717 73.6374 132.814 73.6631 132.171 76.0789ZM150.531 80.9666C149.914 83.2859 149.695 83.331 142.737 81.4789C135.876 79.6524 135.612 79.4786 135.843 77.0565C136.003 74.512 136.003 74.512 143.54 76.5185C151.078 78.525 151.174 78.5508 150.531 80.9666ZM172.125 85.3698C171.18 88.533 169.479 88.7012 162.406 86.5077C155.912 84.4685 155.383 84.1209 155.633 82.0144C155.884 79.9079 156.103 79.8627 164.123 81.9979C170.115 83.5928 172.357 84.5001 172.125 85.3698ZM70.5094 69.8056L70.0533 72.6852L64.6285 70.5167C58.1923 67.872 58.1923 67.872 58.1847 65.1795C58.216 63.1181 58.5316 63.0987 64.5424 65.0092C70.7465 66.9713 70.914 67.1193 70.5094 69.8056ZM87.9544 72.6904C88.3749 76.9416 87.6922 77.1738 80.1547 75.1673L72.9071 73.238L73.6788 70.3389L74.4506 67.4399L81.1184 69.2149C86.3366 70.604 87.7799 71.4022 87.9544 72.6904ZM189.524 100.867C188.54 103.399 188.321 103.444 181.479 101.933C174.541 100.397 174.373 100.249 174.965 98.0263C175.84 94.7407 176.497 94.6051 183.841 96.5602L190.509 98.3352L189.524 100.867ZM205.565 103.585C204.87 106.194 202.996 106.627 196.825 105.708C191.04 104.892 190.582 104.667 191.477 103.25C192.095 102.483 192.745 101.207 192.951 100.434C193.234 99.3711 194.857 99.4928 199.592 100.753C203.941 101.911 205.771 102.812 205.565 103.585ZM110.271 80.5975C109.654 82.9167 109.435 82.9619 102.381 81.084C95.3263 79.2061 95.1588 79.058 95.7762 76.7388C96.3936 74.4195 96.6126 74.3744 103.667 76.2523C110.721 78.1302 110.889 78.2782 110.271 80.5975ZM129.598 85.7424C128.955 88.1583 128.859 88.1325 121.224 86.1003C113.59 84.068 113.494 84.0423 114.137 81.6265C114.78 79.2106 114.876 79.2363 122.511 81.2686C130.145 83.3008 130.241 83.3265 129.598 85.7424ZM147.959 90.6301C147.29 93.1426 147.29 93.1426 139.926 90.8719C133.046 88.7298 132.517 88.3822 132.768 86.2757C133.018 84.1692 133.237 84.124 140.775 86.1305C148.505 88.1885 148.602 88.2142 147.959 90.6301ZM167.17 95.4337C166.34 97.3858 165.708 97.4247 158.77 95.8882C151.252 94.1973 150.653 93.7273 152.636 90.9437C153.453 89.8161 155.173 89.9635 160.875 91.4813C167.736 93.3077 168 93.4815 167.17 95.4337Z" fill="#4B4B4B" fill-opacity="0.1"/>
<path d="M-27.9296 71.8514C-44.0777 88.9736 -57.0771 103.209 -56.9353 103.453C-56.7934 103.698 20.5851 124.4 115.023 149.437L286.82 194.859L277.075 154.494C271.713 132.267 267.196 113.472 266.893 112.667C266.57 111.546 265.527 111.579 262.5 112.843C248.904 118.434 224.142 118.154 186.276 111.903C168.612 109.063 86.8851 87.2038 70.3147 81.0335C34.8353 67.7598 14.9905 56.7854 5.51004 45.3622C3.48631 42.8573 1.74622 40.8418 1.55295 40.7904C1.45632 40.7647 -11.8073 54.8259 -27.9296 71.8514ZM102.228 99.1527C101.945 100.216 100.779 100.319 97.9763 99.5733C95.1739 98.8272 94.2138 98.1577 94.4968 97.0948C94.7798 96.0318 95.9457 95.9282 98.748 96.6742C101.55 97.4202 102.511 98.0897 102.228 99.1527ZM133.151 107.385C132.842 108.544 131.412 108.474 126 107.033C120.589 105.593 119.313 104.943 119.622 103.783C119.93 102.624 121.361 102.694 126.772 104.134C132.184 105.575 133.459 106.225 133.151 107.385ZM158.276 114.073C157.993 115.136 156.73 115.214 153.541 114.365C150.352 113.516 149.296 112.821 149.579 111.758C149.861 110.695 151.124 110.617 154.313 111.466C157.502 112.315 158.559 113.01 158.276 114.073ZM32.8084 87.8132C32.7569 88.0065 31.096 90.3584 29.2356 93.0711L25.669 97.9167L20.0642 96.4247L14.4594 94.9326L18.0322 89.6748L21.5084 84.3912L27.2098 85.909C30.3021 86.7321 32.8598 87.62 32.8084 87.8132ZM228.006 144.847C228.104 147.977 228.208 150.695 228.105 151.082C228.028 151.372 225.561 150.922 222.591 150.028L217.231 148.394L216.681 143.074C216.435 140.111 216.208 137.463 216.337 136.98C216.44 136.593 219.029 136.972 222.122 137.796L227.727 139.288L228.006 144.847ZM49.5691 102.209C47.7601 104.729 47.5411 104.774 42.0329 103.308C38.9406 102.484 36.3829 101.597 36.4344 101.403C36.5115 101.113 37.2325 99.9601 38.1725 98.7616C39.6596 96.6739 40.1942 96.6093 45.5091 98.0241L51.3072 99.5676L49.5691 102.209ZM77.3665 107.022C77.3151 107.215 76.4717 108.44 75.4352 109.612C73.7548 111.649 73.3425 111.642 66.1916 109.739L58.6541 107.732L60.3921 105.091C62.2269 102.474 62.2269 102.474 69.861 104.507C74.0163 105.613 77.4437 106.732 77.3665 107.022ZM101.188 124.436C96.1256 139.956 96.4475 139.525 91.1326 138.11L86.6874 136.926L89.3704 129.569C90.7407 125.587 92.8898 119.847 94.0995 116.858L96.1456 111.504L100.398 112.636L104.746 113.793L101.188 124.436ZM135.975 129.04C135.384 132.815 134.13 138.69 133.179 142.266L131.429 148.837L115.678 144.644L99.9264 140.451L103.123 129.608C108.179 112.948 106.002 114.128 122.817 118.604L137.119 122.411L135.975 129.04ZM148.12 134.343C147.246 139.181 146.185 145.107 145.903 147.723L145.248 152.515L140.416 151.229L135.585 149.943L137.526 140.318C138.503 135.094 139.782 129.122 140.322 127.093L141.274 123.517L145.526 124.649L149.681 125.755L148.12 134.343ZM183.613 135.513C183.484 135.996 183.44 137.329 183.447 138.469C183.486 140.653 183.171 140.672 176.02 138.769C169.062 136.917 168.605 136.691 168.352 134.141C168.204 132.756 168.152 131.397 168.229 131.107C168.409 130.43 183.793 134.836 183.613 135.513ZM205.994 142.402C206.466 146.46 205.635 146.86 200.056 145.271C195.373 143.817 194.651 143.418 194.444 141.086C194.295 139.701 194.243 138.342 194.32 138.052C194.372 137.859 197.032 138.36 200.124 139.184C204.376 140.315 205.82 141.114 205.994 142.402ZM87.5075 111.688C87.0445 113.427 85.1319 114.781 83.6824 114.395C82.4262 114.061 82.1683 113.475 82.9407 112.128C83.7388 110.685 87.8934 110.238 87.5075 111.688ZM160.242 133.12C160.198 134.453 159.708 134.737 158.529 134.113C157.517 133.636 156.879 132.535 156.969 131.421C157.014 130.087 157.503 129.804 158.682 130.428C159.694 130.904 160.332 132.005 160.242 133.12ZM0.27199 102.746C-4.2533 110.027 -5.21271 110.91 -7.41585 110.634C-9.42572 110.409 -9.56753 110.164 -8.34461 107.903C-5.20353 102.323 -2.54428 99.7196 -0.514953 100.26C1.22447 100.723 1.31484 101.161 0.27199 102.746ZM41.7727 112.448C40.9238 115.637 39.3651 116.05 33.9536 114.61C28.5421 113.169 28.4712 113.047 29.5717 110.856C30.5499 108.736 30.9879 108.646 36.3028 110.061C39.4918 110.91 41.9014 111.965 41.7727 112.448ZM62.6138 118.514C62.1438 119.113 60.8695 121.568 59.9107 124.003L58.051 128.268L53.3159 127.008C48.0976 125.619 48.0461 125.812 51.5154 119.388L53.8903 114.743L58.722 116.029C62.3942 117.007 63.2833 117.554 62.6138 118.514ZM183.943 153.71C183.905 156.183 183.887 158.973 183.946 159.919C184.043 161.498 183.289 161.607 179.231 160.527L174.496 159.267L174.745 154.055C174.903 146.853 174.877 146.95 179.709 148.236C183.96 149.368 183.96 149.368 183.943 153.71ZM207.379 158.19L207.87 161.011L202.053 159.152C196.911 157.473 196.119 156.951 195.957 154.838C195.724 152.603 195.943 152.558 201.355 153.999C206.38 155.336 207.005 155.71 207.379 158.19ZM241.492 168.823C242.114 177.37 242.14 177.274 239.917 176.682C237.888 176.142 236.875 172.561 236.924 166.158C236.987 163.588 237.232 163.446 239.087 164.25C240.582 164.855 241.336 166.298 241.492 168.823Z" fill="#4B4B4B" fill-opacity="0.1"/>
</svg>
