<svg width="20" height="20" viewBox="0 0 20 20" fill="none" xmlns="http://www.w3.org/2000/svg">
<path d="M14.0181 4.27875C13.4072 3.57836 13.04 2.66512 13.04 1.66675H12.2745M14.0181 4.27875C14.5749 4.91727 15.3287 5.38165 16.1871 5.56348C16.4539 5.62153 16.7322 5.65252 17.0222 5.65252V8.516C15.5375 8.516 14.161 8.04009 13.0398 7.23517V13.059C13.0398 15.969 10.6735 18.3334 7.76993 18.3334C6.25041 18.3334 4.87783 17.6832 3.9151 16.6501C3.03743 15.7059 2.5 14.4443 2.5 13.059C2.5 10.1916 4.79665 7.85432 7.64232 7.79241M14.0181 4.27875C14.0033 4.26905 13.9885 4.25926 13.9737 4.24937M5.8213 14.4598C5.53519 14.0652 5.36507 13.5815 5.36507 13.0552C5.36507 11.7279 6.44379 10.6482 7.77 10.6482C8.01744 10.6482 8.25713 10.6907 8.48138 10.7604V7.83502C8.24939 7.80402 8.01357 7.78466 7.77 7.78466C7.72744 7.78466 7.38486 7.80745 7.34232 7.80745M12.2704 1.66675H10.1748L10.171 13.148C10.1245 14.4327 9.06513 15.466 7.76993 15.466C6.9657 15.466 6.25814 15.0674 5.81737 14.4637" stroke="#0069B5" stroke-linejoin="round"/>
</svg>
