<svg width="50" height="50" viewBox="0 0 50 50" fill="none" xmlns="http://www.w3.org/2000/svg">
<rect x="0.5" y="0.5" width="49" height="49" rx="24.5" stroke="#EAEAEA"/>
<path d="M8.08393 9.51902C8.06998 9.53932 9.19979 11.0346 10.5877 12.8343C11.9755 14.634 14.9256 18.4635 17.1434 21.339L21.1745 26.569L20.9164 26.8532C20.77 27.0088 17.8059 30.1144 14.3328 33.7544C10.8596 37.4012 8.00721 40.4053 8.00024 40.4391C7.98629 40.4729 8.59304 40.5 9.46481 40.4932L10.9503 40.4865L11.4385 39.9655C11.7105 39.6813 14.2351 37.0359 17.0527 34.0792C19.8703 31.1225 22.2554 28.6191 22.3531 28.5109L22.5274 28.3146L23.9223 30.1279C24.6894 31.1225 26.8026 33.8694 28.6159 36.224L31.9217 40.5H36.9779C41.1834 40.5 42.0272 40.4865 41.9993 40.412C41.9784 40.3579 40.6952 38.68 39.1469 36.6705C37.5986 34.6678 35.8272 32.3674 35.2135 31.569C34.5928 30.7707 32.7725 28.3958 31.1545 26.3052C29.5365 24.2078 28.2114 22.4622 28.2114 22.4351C28.2114 22.3877 36.7617 13.3823 39.67 10.3715L40.4999 9.51226H38.9725L37.4522 9.51902L35.6738 11.3864C34.6974 12.4148 32.3052 14.9317 30.3525 16.9683L26.8166 20.676L22.5274 15.1144L18.2314 9.54609L13.1751 9.51226C10.3924 9.49196 8.09787 9.49872 8.08393 9.51902ZM20.0656 15.5136C21.7184 17.6651 24.271 20.9737 25.7356 22.8749C27.2001 24.7693 30.4501 28.9912 32.9608 32.2456C35.4715 35.5068 37.5498 38.2064 37.5847 38.2537C37.6265 38.3146 37.1314 38.3349 35.3251 38.3349H33.0166L28.4415 32.3945C17.8826 18.7071 12.5544 11.7924 12.4916 11.6909C12.4498 11.63 12.924 11.6097 14.7443 11.6097H17.0527L20.0656 15.5136Z" fill="#0069B5"/>
</svg>
