  <svg
                  xmlns="http://www.w3.org/2000/svg"
                  width="26"
                  height="26"
                  viewBox="0 0 26 26"
                  fill="none"
                  className="text-white"
                >
                  <path
                    d="M6.60079 0.0268901C6.5297 0.0421245 6.22501 0.0827495 5.91525 0.128453C5.61056 0.174156 5.184 0.250328 4.97579 0.301109C3.61993 0.641343 2.27931 1.57064 1.3754 2.78431C0.664464 3.74408 0.32423 4.60736 0.126183 5.97337C-0.0667855 7.25814 -0.046473 7.57806 0.24298 7.88783C0.425793 8.0808 0.654308 8.1722 0.964074 8.1722C1.29415 8.1722 1.51251 8.0808 1.71056 7.85228C1.88829 7.64916 1.91368 7.54252 2.07618 6.39486C2.13204 5.98861 2.2336 5.47572 2.3047 5.25228C2.66525 4.11986 3.69103 2.98744 4.84376 2.45931C5.28556 2.25619 5.67657 2.1597 6.47384 2.05306C7.72814 1.89056 7.92111 1.81439 8.11915 1.40814C8.35275 0.915562 8.16486 0.306187 7.70782 0.0675151C7.58087 0.00149948 6.94103 -0.0238911 6.60079 0.0268901Z"
                    fill="white"
                  />
                  <path
                    d="M18.2652 0.103062C18.1637 0.158921 18.0164 0.29603 17.9352 0.412827C17.8184 0.590562 17.7981 0.67689 17.7981 0.961265C17.7981 1.24564 17.8184 1.33197 17.9402 1.5097C18.1434 1.82455 18.3414 1.89564 19.2961 2.02259C19.7582 2.08353 20.3067 2.18001 20.5149 2.23587C21.9063 2.60658 23.191 3.81517 23.6684 5.19642C23.7598 5.45033 23.8613 5.92767 23.9223 6.37455C24.0848 7.54252 24.1102 7.64916 24.2828 7.8472C24.5012 8.09603 24.7094 8.18744 25.0344 8.18744C25.3442 8.18744 25.5473 8.10111 25.7555 7.88275C26.0449 7.57806 26.0602 7.29877 25.8723 6.00384C25.7301 5.01361 25.5777 4.48548 25.2629 3.84564C24.9125 3.13978 24.5977 2.70306 23.968 2.07337C23.3484 1.44369 22.8457 1.07806 22.1399 0.727671C21.5102 0.417905 20.977 0.265562 19.9918 0.123374C18.9254 -0.0289697 18.5293 -0.0340478 18.2652 0.103062Z"
                    fill="white"
                  />
                  <path
                    d="M11.8567 6.60814C8.55079 6.93822 5.38204 8.83236 3.19845 11.7777C2.77189 12.3566 2.68556 12.5597 2.68556 12.9964C2.68556 13.4484 2.77189 13.6413 3.25939 14.2913C5.18907 16.866 7.89064 18.6331 10.7649 19.212C11.9125 19.4406 13.502 19.4913 14.5734 19.3238C17.016 18.9531 19.1692 17.8917 21.1344 16.089C21.9317 15.3628 23.0996 13.9054 23.252 13.4585C23.3281 13.23 23.318 12.712 23.2367 12.4785C23.0996 12.0925 22.2567 11.0261 21.4289 10.1984C20.393 9.15736 19.3875 8.43119 18.0774 7.77103C16.1324 6.80111 13.9742 6.39486 11.8567 6.60814ZM10.2824 9.01009C9.47501 9.60423 9.01798 10.1527 8.63204 10.9804C7.86525 12.6308 8.109 14.5808 9.26173 16.023C9.44454 16.2464 9.75939 16.5663 9.97267 16.7339C10.1809 16.8964 10.3434 17.0386 10.3332 17.0488C10.3281 17.0589 10.0945 16.9827 9.82032 16.8761C8.74884 16.48 7.62657 15.8199 6.72775 15.0683C5.95079 14.4183 4.82345 13.1843 4.82345 12.9812C4.82345 12.8695 5.58009 11.996 6.17423 11.4222C7.27618 10.3609 8.50001 9.589 9.8254 9.10658C10.3332 8.92377 10.4348 8.89837 10.2824 9.01009ZM16.1324 9.09134C17.1074 9.43158 18.2551 10.0867 19.1692 10.8281C19.8699 11.3917 21.175 12.8085 21.175 13.0015C21.175 13.0929 20.6621 13.7175 20.1645 14.2355C19.032 15.4085 17.6406 16.3327 16.1781 16.8761C15.9039 16.9827 15.6703 17.0538 15.6602 17.0437C15.65 17.0335 15.7414 16.9523 15.8633 16.866C16.2188 16.607 16.7418 16.0535 17.016 15.6421C17.6254 14.7128 17.8996 13.5702 17.7727 12.4785C17.6102 11.0566 16.9399 9.92923 15.716 9.01517C15.5688 8.90345 15.6297 8.91361 16.1324 9.09134ZM12.3035 9.66517C12.6945 9.83275 12.8621 10.2847 12.6539 10.6199C12.532 10.8179 12.4356 10.8788 12.0547 11.021C11.6231 11.1835 11.1762 11.6456 10.9984 12.1179C10.841 12.5242 10.6633 12.7171 10.384 12.773C10.0387 12.8339 9.59689 12.4734 9.59689 12.1281C9.59689 11.8995 9.83048 11.341 10.0793 10.9601C10.4449 10.4117 11.0137 9.96478 11.6434 9.72103C12.0141 9.57884 12.0852 9.57377 12.3035 9.66517Z"
                    fill="white"
                  />
                  <path
                    d="M0.700011 17.8156C0.441027 17.9019 0.222668 18.0695 0.105871 18.2827C-0.00584796 18.4808 -0.0109261 18.5316 0.0144645 19.0343C0.0601677 19.7706 0.268371 20.964 0.430871 21.4261C1.15704 23.4523 2.95978 25.1535 4.92501 25.6562C5.5547 25.8187 6.98673 26.0167 7.3422 25.9863C7.65196 25.9609 7.92111 25.7831 8.09376 25.4886C8.23595 25.2449 8.22579 24.8081 8.06837 24.5288C7.87032 24.1734 7.65704 24.082 6.74806 23.9652C5.72228 23.8331 5.3465 23.7417 4.8336 23.5031C3.84845 23.046 3.02579 22.2488 2.51798 21.2484C2.28439 20.7812 2.16759 20.3191 2.03048 19.2933C1.90861 18.3386 1.8172 18.1253 1.48204 17.9324C1.25353 17.8054 0.903136 17.7546 0.700011 17.8156Z"
                    fill="white"
                  />
                  <path
                    d="M24.5875 17.9273C24.1559 18.1456 24.1102 18.2624 23.9172 19.6386C23.8613 20.0347 23.7598 20.5374 23.6887 20.7558C23.252 22.0609 22.1043 23.2187 20.7992 23.6656C20.5453 23.757 20.068 23.8585 19.6211 23.9195C18.4531 24.082 18.3465 24.1074 18.1484 24.28C18.052 24.3663 17.9352 24.5035 17.8945 24.5898C17.793 24.7777 17.793 25.2855 17.8945 25.4785C18.0063 25.6968 18.3059 25.9355 18.5141 25.9761C18.9356 26.0523 20.7383 25.8035 21.4188 25.5699C23.318 24.9148 24.9176 23.3152 25.5727 21.416C25.7301 20.9538 25.9434 19.7351 25.984 19.0648C26.0094 18.6077 26.0043 18.5316 25.9027 18.3386C25.6692 17.8816 25.0547 17.6886 24.5875 17.9273Z"
                    fill="white"
                  />
                </svg>