<svg xmlns="http://www.w3.org/2000/svg" width="238" height="271" viewBox="0 0 238 271" fill="none">
  <path d="M117.907 0.349358C114.8 0.738176 96.6566 3.77547 77.3702 7.04594C58.2114 10.2554 23.2885 16.069 -0.280027 20.0558C-24.3866 24.0648 -43.8726 27.9011 -45.0262 28.7667C-47.0451 30.2813 -47.2114 30.7529 -46.5287 33.3265C-45.968 35.6451 -45.0027 36.5158 -42.0793 37.5471L-38.3071 38.8777L-39.9038 43.4043C-41.8665 48.9683 -41.1673 50.5935 -35.9806 52.4231L-31.9255 53.8535L-33.5555 58.4744C-35.5182 64.0384 -34.1753 66.845 -28.5171 68.8409L-24.9335 70.105L-54.5402 154.036L-59.2554 152.373C-64.6308 150.477 -66.3225 151.365 -68.4848 157.494C-69.8487 161.361 -69.8487 161.361 -73.5265 160.064C-79.1848 158.068 -80.7877 159.305 -84.0478 168.547C-86.5427 175.62 -86.6868 176.629 -85.2664 178.615C-83.846 180.6 -70.0498 185.679 44.1532 225.964C158.356 266.249 172.286 270.951 174.637 270.296C176.989 269.641 177.477 268.859 180.172 261.22C183.498 251.789 183.171 250.613 176.852 248.385C173.552 247.22 173.491 247.093 174.821 243.321C176.984 237.191 176.223 235.438 170.848 233.542L166.133 231.879L195.74 147.947L199.323 149.211C204.981 151.207 207.788 149.865 209.751 144.301L211.381 139.68L215.436 141.11C220.623 142.94 222.187 142.113 224.149 136.549L225.746 132.022L229.518 133.353C234.139 134.983 238.133 132.68 237.566 128.875C237.139 126.179 239.68 129.197 194.729 78.6655C174.939 56.3089 151.393 29.8703 142.522 19.8484C133.651 9.8265 125.767 1.21335 124.924 0.597777C124.08 -0.0177965 120.952 -0.167033 117.907 0.349358ZM166.082 61.8796C190.776 89.5716 211.992 113.598 213.168 115.073C215.337 117.641 212.004 116.571 97.0461 76.0196C-17.5341 35.6014 -21.1787 34.2097 -17.8784 33.5713C-15.9425 33.1938 8.4192 29.0626 36.2699 24.3596C64.2149 19.6898 94.0957 14.6425 102.788 13.1489C111.48 11.6552 119.151 10.6499 119.905 10.9161C120.565 11.1489 141.421 34.0933 166.082 61.8796ZM215.983 129.639C215.75 130.299 174.156 115.945 93.0542 87.3361C11.9521 58.7274 -29.4421 43.8075 -29.2093 43.1473C-28.9764 42.4872 12.6175 56.8413 93.7195 85.45C174.822 114.059 216.216 128.979 215.983 129.639ZM200.508 137.435C200.209 138.284 -21.1076 61.0628 -22.5667 59.4877C-22.8774 59.166 -22.7721 58.5669 -22.3229 58.1952C-21.0417 57.2686 200.941 136.209 200.508 137.435ZM-30.964 162.353L-44.1667 157.695L-14.56 73.7643L-1.35731 78.4215L-30.964 162.353ZM-7.4211 170.764L-20.8957 165.374L7.97886 81.7149L22.2189 86.738L-7.4211 170.764ZM30.9029 136.671L15.8831 178.348L2.00937 174.09L31.6493 90.0646L45.795 95.0545L30.9029 136.671ZM54.0741 144.632C45.9349 167.104 39.2207 185.838 39.0876 186.215C38.9213 186.687 35.898 185.938 32.2201 184.641L25.6188 182.312L55.2588 98.2868L68.7334 103.676L54.0741 144.632ZM62.3976 195.286L49.195 190.629L78.8017 106.698L92.0043 111.355L62.3976 195.286ZM85.9738 203.603L72.7712 198.945L78.5982 182.126C81.7307 172.945 88.2896 154.051 93.0854 140.155L101.906 114.848L115.581 119.671L85.9738 203.603ZM109.517 212.013L96.0421 206.624L110.496 164.747L125.011 122.998L139.157 127.988L109.517 212.013ZM147.841 177.92L132.821 219.598L118.947 215.34L148.587 131.314L162.733 136.304L147.841 177.92ZM155.759 228.219L142.557 223.562L172.163 139.631L185.366 144.288L155.759 228.219ZM164.36 242.917C164.127 243.578 126.022 230.454 51.8044 204.274C-22.4134 178.094 -60.3184 164.405 -60.0855 163.744C-59.8527 163.084 -21.7481 176.208 52.4697 202.388C126.688 228.568 164.593 242.257 164.36 242.917ZM170.741 257.893C170.508 258.553 128.915 244.199 47.8125 215.591C-33.2896 186.982 -74.6838 172.062 -74.451 171.402C-74.2181 170.742 -32.6242 185.096 48.4778 213.704C129.58 242.313 170.974 257.233 170.741 257.893Z" fill="#4B4B4B" fill-opacity="0.1"/>
</svg>