<svg width="18" height="18" viewBox="0 0 18 18" fill="none" xmlns="http://www.w3.org/2000/svg">
<path d="M6.36943 0.0199147C6.32021 0.026946 6.162 0.0515553 6.01786 0.0726491C5.39911 0.16054 4.55888 0.427727 3.9788 0.719524C1.91513 1.75663 0.526458 3.61288 0.0870046 5.92265C0.00262961 6.36913 -0.0149485 7.58905 0.055364 8.08476C0.28388 9.66679 0.983489 11.066 2.10497 12.184C3.81005 13.8785 6.21825 14.5957 8.57724 14.1105C9.56513 13.9066 10.5811 13.4531 11.3616 12.8695L11.5901 12.6973L14.1917 15.2918C15.8511 16.9441 16.839 17.9039 16.9233 17.9391C17.1132 18.0269 17.4331 18.0164 17.6229 17.918C17.862 17.7914 17.9851 17.591 17.9991 17.2992C18.0097 17.1199 17.9991 17.0215 17.9534 16.923C17.9112 16.8316 17.0499 15.9422 15.2956 14.1844L12.7011 11.5828L12.789 11.4773C12.9612 11.2664 13.2811 10.7672 13.4569 10.4226C13.9245 9.52968 14.1706 8.64023 14.2479 7.58554C14.3991 5.56405 13.6468 3.56015 12.1913 2.09765C11.0839 0.986712 9.67411 0.276555 8.12372 0.0515553C7.78271 0.0023366 6.62958 -0.0152415 6.36943 0.0199147ZM8.03232 1.59843C9.83232 1.8832 11.4425 3.11015 12.2089 4.77304C13.2003 6.9246 12.7573 9.3996 11.0804 11.073C8.87958 13.2773 5.36396 13.2738 3.16669 11.066C2.32997 10.2223 1.79911 9.18515 1.59872 8.00741C1.53193 7.60312 1.5249 6.68905 1.58466 6.32695C1.80615 5.02265 2.34404 3.97499 3.24404 3.10663C4.21786 2.17148 5.39208 1.64413 6.75615 1.53163C7.0163 1.51054 7.70185 1.5457 8.03232 1.59843Z" fill="white"/>
</svg>
