<svg xmlns="http://www.w3.org/2000/svg" width="238" height="271" viewBox="0 0 238 271" fill="none">
  <path d="M117.905 0.349358C114.798 0.738176 96.6546 3.77547 77.3683 7.04594C58.2095 10.2554 23.2865 16.069 -0.281981 20.0558C-24.3886 24.0648 -43.8745 27.9011 -45.0282 28.7667C-47.047 30.2813 -47.2133 30.7529 -46.5306 33.3265C-45.97 35.6451 -45.0047 36.5158 -42.0812 37.5471L-38.309 38.8777L-39.9058 43.4043C-41.8685 48.9683 -41.1693 50.5935 -35.9825 52.4231L-31.9274 53.8535L-33.5575 58.4744C-35.5201 64.0384 -34.1773 66.845 -28.519 68.8409L-24.9354 70.105L-54.5421 154.036L-59.2574 152.373C-64.6327 150.477 -66.3244 151.365 -68.4867 157.494C-69.8506 161.361 -69.8506 161.361 -73.5285 160.064C-79.1868 158.068 -80.7897 159.305 -84.0497 168.547C-86.5447 175.62 -86.6887 176.629 -85.2683 178.615C-83.848 180.6 -70.0517 185.679 44.1513 225.964C158.354 266.249 172.284 270.951 174.635 270.296C176.987 269.641 177.475 268.859 180.17 261.22C183.496 251.789 183.169 250.613 176.85 248.385C173.55 247.22 173.489 247.093 174.819 243.321C176.982 237.191 176.221 235.438 170.846 233.542L166.131 231.879L195.738 147.947L199.321 149.211C204.979 151.207 207.786 149.865 209.749 144.301L211.379 139.68L215.434 141.11C220.621 142.94 222.185 142.113 224.147 136.549L225.744 132.022L229.516 133.353C234.137 134.983 238.131 132.68 237.564 128.875C237.137 126.179 239.678 129.197 194.727 78.6655C174.937 56.3089 151.391 29.8703 142.52 19.8484C133.649 9.8265 125.765 1.21335 124.922 0.597777C124.078 -0.0177965 120.95 -0.167033 117.905 0.349358ZM166.08 61.8796C190.774 89.5716 211.99 113.598 213.166 115.073C215.336 117.641 212.002 116.571 97.0441 76.0196C-17.5361 35.6014 -21.1807 34.2097 -17.8803 33.5713C-15.9445 33.1938 8.41725 29.0626 36.2679 24.3596C64.213 19.6898 94.0938 14.6425 102.786 13.1489C111.478 11.6552 119.149 10.6499 119.903 10.9161C120.563 11.1489 141.419 34.0933 166.08 61.8796ZM215.981 129.639C215.748 130.299 174.154 115.945 93.0522 87.3361C11.9502 58.7274 -29.4441 43.8075 -29.2112 43.1473C-28.9784 42.4872 12.6155 56.8413 93.7176 85.45C174.82 114.059 216.214 128.979 215.981 129.639ZM200.506 137.435C200.207 138.284 -21.1095 61.0628 -22.5687 59.4877C-22.8794 59.166 -22.7741 58.5669 -22.3248 58.1952C-21.0436 57.2686 200.939 136.209 200.506 137.435ZM-30.966 162.353L-44.1686 157.695L-14.5619 73.7643L-1.35926 78.4215L-30.966 162.353ZM-7.42305 170.764L-20.8976 165.374L7.97691 81.7149L22.2169 86.738L-7.42305 170.764ZM30.9009 136.671L15.8812 178.348L2.00742 174.09L31.6474 90.0646L45.7931 95.0545L30.9009 136.671ZM54.0721 144.632C45.9329 167.104 39.2187 185.838 39.0856 186.215C38.9193 186.687 35.8961 185.938 32.2182 184.641L25.6168 182.312L55.2568 98.2868L68.7314 103.676L54.0721 144.632ZM62.3957 195.286L49.193 190.629L78.7997 106.698L92.0024 111.355L62.3957 195.286ZM85.9719 203.603L72.7692 198.945L78.5962 182.126C81.7287 172.945 88.2876 154.051 93.0834 140.155L101.904 114.848L115.579 119.671L85.9719 203.603ZM109.515 212.013L96.0402 206.624L110.494 164.747L125.009 122.998L139.155 127.988L109.515 212.013ZM147.839 177.92L132.819 219.598L118.945 215.34L148.585 131.314L162.731 136.304L147.839 177.92ZM155.757 228.219L142.555 223.562L172.161 139.631L185.364 144.288L155.757 228.219ZM164.358 242.917C164.125 243.578 126.02 230.454 51.8024 204.274C-22.4154 178.094 -60.3203 164.405 -60.0875 163.744C-59.8546 163.084 -21.75 176.208 52.4678 202.388C126.686 228.568 164.591 242.257 164.358 242.917ZM170.739 257.893C170.506 258.553 128.913 244.199 47.8105 215.591C-33.2915 186.982 -74.6858 172.062 -74.4529 171.402C-74.2201 170.742 -32.6262 185.096 48.4758 213.704C129.578 242.313 170.972 257.233 170.739 257.893Z" fill="#4B4B4B" fill-opacity="0.1"/>
</svg>