<svg xmlns="http://www.w3.org/2000/svg" width="397" height="268" viewBox="0 0 397 268" fill="none">
  <path d="M342.714 9.99832C347.515 19.5893 347.146 20.696 340.498 24.7538C330.528 31.0248 336.436 35.8203 370.042 49.4691C384.813 55.3713 397 62.3801 397 64.5934C397 70.8645 384.075 78.6111 359.702 86.3577L338.652 93.3665L336.806 113.286C335.328 127.304 336.436 136.526 340.129 144.273C347.146 157.553 344.561 169.726 330.897 189.277C321.665 202.188 320.557 206.983 320.926 229.117C321.295 250.143 320.187 254.201 314.279 256.045C305.785 258.996 302.461 255.307 295.814 237.232C292.86 229.117 290.275 224.69 290.275 226.903C289.906 229.485 292.491 238.339 295.814 246.823C300.984 259.734 301.354 262.316 296.922 265.267C288.428 270.432 286.951 269.325 281.412 252.725C271.072 224.321 271.072 215.468 281.043 195.179C288.798 180.424 289.906 174.89 286.213 170.833C283.258 167.144 282.889 163.824 286.213 157.922C289.167 152.019 289.167 148.699 286.213 145.011C283.258 141.322 283.258 139.846 286.951 138.74C289.536 137.633 293.968 139.477 296.553 142.797C299.507 146.117 300.246 146.486 299.138 143.904C297.661 140.953 296.553 129.148 296.922 116.975C296.922 105.171 295.814 95.211 294.337 94.8421C275.873 92.6288 248.176 94.1043 246.699 97.4243C245.96 99.2687 246.699 114.393 248.176 130.624C250.761 156.077 252.238 160.135 259.624 163.455C264.794 165.668 267.748 169.726 267.01 174.153C265.532 184.112 258.147 185.588 255.562 176.735C254.084 170.833 249.284 168.619 234.512 166.775C210.139 163.455 194.259 150.544 183.18 124.722C178.749 114.762 173.948 106.278 172.84 106.278C162.5 106.278 68.7003 133.944 63.5302 138.371C58.3601 143.166 57.2523 143.535 57.2523 139.108C57.2523 134.682 56.5137 134.682 53.9286 139.108C52.0822 142.059 48.02 143.166 44.3271 141.691C40.6342 140.584 35.4641 141.322 32.879 143.535C29.1861 146.486 27.709 146.486 27.709 143.535C27.709 141.322 25.8625 139.477 23.6468 139.477C21.431 139.477 20.6924 142.428 22.1696 146.486C23.2775 150.544 22.5389 154.602 20.6924 156.077C18.1074 157.184 17.7381 156.077 18.846 152.388C20.6924 147.593 19.5846 147.224 11.0909 150.544C5.55151 152.757 0.381439 153.864 0.012146 153.495C-0.357147 152.757 7.76724 145.748 18.1074 138.002C28.4475 129.886 34.7255 126.197 31.7712 129.517C27.3397 135.051 27.709 135.788 35.0948 135.788C41.742 135.788 42.8499 134.313 41.3727 127.304C39.157 119.557 39.5263 119.557 44.3271 126.197C49.4971 132.837 51.3436 132.468 105.999 119.189C137.019 111.442 165.455 103.695 168.778 101.851C173.948 99.2687 175.425 93.7354 175.425 77.5044C175.425 64.5934 178.38 50.2069 182.811 40.2469C191.305 21.8027 192.043 15.1627 185.396 12.9494C177.272 9.99832 186.135 5.57169 195.736 8.15387C202.384 9.99832 204.969 12.9494 204.969 19.5893C204.969 32.8692 237.466 77.8733 245.221 74.9222C259.993 69.3889 323.142 31.7626 323.142 28.4426C323.142 26.2293 320.926 26.2293 316.495 28.4426C310.586 31.7626 309.478 30.6559 309.478 20.3271C309.478 6.30945 314.279 1.14505 327.573 0.0383911C334.959 -0.330505 338.652 1.88281 342.714 9.99832ZM191.305 47.6247C185.396 64.9623 185.027 95.211 190.936 95.211C199.429 95.211 230.819 82.6688 230.819 79.3489C230.819 72.34 203.492 32.5004 199.799 33.607C197.583 34.3448 193.89 40.6158 191.305 47.6247ZM278.827 67.5445C267.748 71.2334 255.562 76.3978 251.869 78.6111C245.221 83.4066 245.221 83.4066 252.607 85.9888C256.669 87.0955 268.117 87.0955 277.719 85.6199C287.69 83.7755 297.661 83.0377 300.246 83.4066C305.416 84.5133 313.171 66.8067 309.847 61.2735C308.739 59.429 305.785 58.6913 303.2 59.429C300.984 60.1668 289.906 63.8557 278.827 67.5445ZM345.299 71.2334C345.299 81.5622 345.299 81.5622 357.117 77.1355C361.917 75.2911 368.934 72.7089 372.996 71.2334C378.905 69.3889 379.274 68.2823 374.843 65.7001C371.888 63.4868 363.764 62.0112 357.117 62.0112C346.776 62.0112 345.299 63.1179 345.299 71.2334ZM210.877 95.211C195.736 101.482 193.89 103.326 195.367 112.18C198.321 127.304 206.815 137.633 224.91 148.331C233.773 153.495 242.636 157.922 243.744 157.922C245.221 157.922 245.221 148.331 244.114 136.526C237.836 81.5622 238.943 83.0377 210.877 95.211ZM289.906 213.254C289.906 216.206 295.814 208.459 302.831 195.548C309.847 183.006 315.756 171.201 315.756 169.726C315.387 164.562 289.906 207.352 289.906 213.254Z" fill="#4B4B4B" fill-opacity="0.1"/>
</svg>