<svg xmlns="http://www.w3.org/2000/svg" width="213" height="285" viewBox="0 0 213 285" fill="none">
  <path d="M51.6591 11.2568C48.6075 26.7344 50.2393 40.2218 56.7478 51.4239C59.764 56.6151 64.3702 62.3443 67.0491 64.4424C69.6486 66.4039 72.0324 68.308 72.1117 68.4446C72.2705 68.7178 66.9273 71.4568 60.2769 74.7726C46.4303 81.7213 40.06 88.3462 36.7977 99.378L34.6767 106.092L45.3034 103.024C57.5326 99.5735 68.8141 100.145 79.6365 104.638C87.2566 107.703 99.4259 116.712 105.451 123.627L108.492 126.977L96.5853 126.585C78.5096 125.941 61.4508 130.188 43.7047 139.22C26.936 148.049 18.941 154.704 10.8143 167.1C3.84863 177.726 -0.296957 196.032 0.913065 210.678C1.84289 222.015 2.34143 223.187 11.8662 239.58C21.2322 255.7 22.2988 256.908 30.5067 262.554C42.3932 270.449 59.283 274.706 73.8389 273.375C83.4064 272.567 87.7821 271.304 97.7069 266.086C124.753 252.016 133.832 231.209 121.767 210.444C113.195 195.69 99.7037 190.373 84.473 195.567C64.378 202.127 57.6379 214.083 64.6176 230.493C67.666 237.31 67.6313 237.878 64.4611 238.076C54.4397 238.416 42.6626 224.428 41.3608 210.566C38.328 180.534 79.7018 155.947 115.104 166.624C132.981 171.952 144.262 182.574 149.753 198.935C158.913 226.321 149.64 257.474 126.746 276.805C120.093 282.315 121.306 284.717 130.407 284.363C141.133 283.978 161.677 272.225 168.688 262.304C174.651 253.723 179.407 238.352 179.432 226.46C179.529 221.287 179.75 216.956 180.159 216.718C180.569 216.48 184.577 218.354 188.982 220.911C199.326 226.778 215.035 230.259 225.444 229.328C237.534 228.151 257.919 216.124 263.565 206.996C265.808 203.318 267.073 199.842 266.108 199.124C265.359 198.462 261.37 199.135 257.29 200.593C245.753 204.92 226.846 205.673 214.113 202.289C207.208 200.454 198.464 196.398 191.675 191.937C181.639 185.343 180.118 183.668 174.324 173.696C166.602 160.092 165.318 150.971 168.858 135.392C177.114 99.3487 218.964 75.5815 243.553 93.0896C254.282 100.561 260.671 116.583 256.57 125.544L254.566 129.632L249.347 123.163C237.979 108.937 224.822 108.906 209.172 123.116C197.116 133.775 195.055 148.129 203.627 162.883C215.692 183.648 238.128 186.144 263.881 169.536C273.33 163.498 276.595 160.322 282.035 152.411C290.399 140.424 295.066 123.643 294.094 109.407C293.253 99.4797 292.733 97.9551 283.367 81.835C273.842 65.4416 273.07 64.428 263.682 58.0056C251.557 49.7011 233.601 44.2367 220.92 45.026C206.126 45.947 196.385 49.5967 180.41 59.7921C163.775 70.7362 151.637 83.453 143.245 99.4753L137.688 110.013L136.285 105.712C133.261 97.0535 131.461 82.0195 132.572 73.8818C134.029 62.2547 139.119 52.1707 148.173 43.2555L156.101 35.5428L149.218 34.0603C138.018 31.431 129.108 33.6843 116.214 42.2724C110.04 46.4078 105.014 49.6933 104.856 49.4201C104.776 49.2834 104.302 46.2696 103.886 43.0398C102.512 32.5089 93.7561 19.3234 83.5613 12.4558C75.3534 6.80923 57.0695 -0.47495 54.7502 0.872625C54.068 1.26897 52.7333 5.88172 51.6591 11.2568Z" fill="#4B4B4B" fill-opacity="0.1"/>
</svg>